<svg width="158" height="70" viewBox="0 0 158 70" fill="none" xmlns="http://www.w3.org/2000/svg">
<path fill-rule="evenodd" clip-rule="evenodd" d="M9.38195 12.9394L28.4944 2.68749C33.2542 0.148932 34.3038 -0.754208 36.7691 0.685935L64.9861 15.6976L38.0872 30.5384C32.3754 33.9801 32.3754 38.0808 32.3266 39.1792L32.2778 69.0561L23.6125 64.394L23.3684 36.5431C23.3684 35.5179 22.9291 29.8549 27.9818 26.1447L49.7792 13.696L46.5572 11.963L25.9314 23.8259C23.3928 25.2904 20.2929 29.025 20.2929 33.858V62.6609L12.5796 58.609L12.4819 30.6116C12.4819 29.5864 12.0426 23.9235 17.0953 20.2133L39.1124 7.95988L35.7195 6.12919L15.0449 17.8944C12.5063 19.3346 9.40636 23.0936 9.40636 27.9266V56.9003L1.44896 52.409L1.37573 21.0188C1.76628 17.2598 6.23316 14.648 9.38195 12.9394Z" fill="white"/>
<path fill-rule="evenodd" clip-rule="evenodd" d="M41.0895 32.2226L68.0373 17.6015L68.0861 52.7996L60.983 56.3145L61.0562 30.8557L55.4909 34.2486L55.5154 59.3168L48.8516 62.7585L48.8028 37.9588L43.1887 41.3028V65.8341L35.8904 69.8128L35.7439 41.0587C35.7927 36.1037 38.5998 33.6628 41.0895 32.2226Z" fill="white"/>
<path fill-rule="evenodd" clip-rule="evenodd" d="M157.106 28.2927V49.7728L153.738 50.0413V28.5856L157.106 28.2927ZM150.101 42.2304V49.724L147.001 50.0169V48.8941C146.61 49.2846 146.147 49.602 145.61 49.8216C145.073 50.0413 144.462 50.139 143.779 50.139C142.51 50.139 141.436 49.7728 140.606 49.0161C139.752 48.2595 139.337 47.3319 139.337 46.2091C139.337 45.0374 139.776 44.0611 140.63 43.3288C141.485 42.5965 142.607 42.206 143.999 42.206C144.633 42.206 145.17 42.2792 145.659 42.4501C146.147 42.6209 146.562 42.865 146.879 43.1823V42.1572C146.879 41.6202 146.708 41.2296 146.342 41.0099C146 40.7902 145.341 40.6926 144.414 40.6926C143.877 40.6926 143.34 40.7414 142.803 40.8146C142.266 40.8879 141.729 41.0099 141.167 41.1808L141.973 38.447C142.705 38.3493 143.34 38.3005 143.877 38.2517C144.438 38.2029 144.926 38.2029 145.366 38.2029C147.099 38.2029 148.319 38.4714 149.027 39.0084C149.735 39.5454 150.101 40.6194 150.101 42.2304ZM144.731 44.5004C144.121 44.5004 143.608 44.6469 143.218 44.9642C142.827 45.2815 142.607 45.6477 142.607 46.087C142.607 46.5508 142.803 46.9169 143.193 47.2343C143.584 47.5516 144.096 47.698 144.731 47.698C145.341 47.698 145.854 47.5516 146.244 47.2343C146.635 46.9414 146.855 46.5508 146.855 46.087C146.855 45.6477 146.659 45.2571 146.244 44.9642C145.829 44.6713 145.317 44.5004 144.731 44.5004ZM137.872 39.2769L136.407 41.6202C135.773 41.2784 135.211 41.0587 134.748 40.9123C134.284 40.7658 133.796 40.717 133.307 40.717C132.258 40.717 131.379 41.0343 130.671 41.6446C129.988 42.2792 129.622 43.0603 129.622 44.0367C129.622 44.9886 129.963 45.7941 130.647 46.4044C131.33 47.0146 132.209 47.3319 133.283 47.3319C133.796 47.3319 134.308 47.2343 134.87 47.0146C135.431 46.8193 136.017 46.502 136.676 46.1114L137.921 48.6988C137.189 49.1138 136.407 49.4555 135.602 49.6752C134.796 49.9193 134.015 50.0169 133.283 50.0169C131.282 50.0169 129.597 49.4311 128.23 48.2839C126.863 47.1366 126.204 45.7209 126.204 44.0367C126.204 42.3524 126.888 40.9123 128.23 39.7406C129.573 38.569 131.257 37.9832 133.283 37.9832C133.967 37.9832 134.699 38.0808 135.455 38.3005C136.261 38.5446 137.042 38.8619 137.872 39.2769ZM119.956 32.7108H123.324V35.8352H119.956V32.7108ZM123.324 38.2029V49.7728L119.956 50.0413V38.5202L123.324 38.2029ZM116.88 40.2776L114.903 41.8154C114.683 41.3028 114.366 40.9123 113.975 40.6438C113.585 40.3753 113.121 40.2532 112.608 40.2532C112.267 40.2532 111.974 40.3509 111.754 40.5217C111.534 40.6926 111.412 40.9367 111.412 41.1808C111.412 41.669 112.071 42.1327 113.39 42.5477C113.658 42.6209 113.853 42.6942 114 42.743C115.025 43.0603 115.782 43.4997 116.27 44.0367C116.758 44.5737 116.978 45.2571 116.978 46.0626C116.978 47.2099 116.538 48.1618 115.635 48.9185C114.732 49.6752 113.585 50.0413 112.218 50.0413C111.364 50.0413 110.607 49.8949 109.923 49.602C109.24 49.3091 108.654 48.8941 108.166 48.3571L110.094 46.3799C110.363 46.7705 110.705 47.0878 111.095 47.3075C111.486 47.5272 111.901 47.6492 112.34 47.6492C112.779 47.6492 113.145 47.5272 113.463 47.2831C113.78 47.039 113.927 46.7461 113.927 46.4044C113.927 46.0626 113.805 45.7941 113.56 45.5744C113.316 45.3792 112.755 45.1351 111.901 44.8666C110.607 44.476 109.679 44.0367 109.167 43.5241C108.63 43.0115 108.361 42.3524 108.361 41.5469C108.361 40.5461 108.801 39.7162 109.655 39.0084C110.509 38.3005 111.559 37.9588 112.755 37.9588C113.609 37.9588 114.415 38.154 115.147 38.569C115.879 39.0084 116.465 39.5698 116.88 40.2776ZM97.6945 38.2029V44.6469C97.6945 45.5744 97.8409 46.2579 98.1582 46.6729C98.4756 47.0878 98.9882 47.2831 99.6716 47.2831C100.428 47.2831 101.039 47.0634 101.429 46.624C101.82 46.1847 102.015 45.55 102.015 44.6957V38.4958L105.408 38.1785V49.6508L102.015 49.9193V48.6256C101.502 49.1138 100.916 49.4799 100.282 49.7484C99.6472 49.9925 98.9637 50.1146 98.2559 50.1146C96.9134 50.1146 95.937 49.724 95.2535 48.9917C94.5945 48.235 94.2528 47.1122 94.2528 45.5989V38.5202L97.6945 38.2029ZM83.2442 39.7162C83.7568 39.1792 84.367 38.7643 85.0017 38.4958C85.6607 38.2273 86.3686 38.0808 87.1497 38.0808C88.4678 38.0808 89.4442 38.447 90.0788 39.1792C90.7134 39.9115 91.0552 41.0343 91.0552 42.5233V49.7484L87.6623 50.0169V43.1579C87.6623 42.4501 87.5158 41.9131 87.1985 41.5225C86.8812 41.132 86.4418 40.9611 85.8804 40.9611C85.1969 40.9611 84.6844 41.1808 84.3182 41.5957C83.9521 42.0107 83.7812 42.6453 83.7812 43.4753V49.7728L80.3883 50.0413V43.1823C80.3883 42.4745 80.2419 41.9375 79.949 41.5469C79.6561 41.1564 79.2167 40.9855 78.6553 40.9855C77.9718 40.9855 77.4592 41.2052 77.0931 41.6202C76.727 42.0351 76.5561 42.6697 76.5561 43.4997V49.7972L73.1632 50.0657V38.5446L76.5561 38.2273V39.521C77.0443 39.0816 77.5813 38.7399 78.1915 38.4714C78.8017 38.2273 79.3631 38.1052 79.9246 38.1052C80.7057 38.1052 81.3647 38.2273 81.9017 38.5202C82.4631 38.7643 82.9269 39.1792 83.2442 39.7162Z" fill="white"/>
<path fill-rule="evenodd" clip-rule="evenodd" d="M147.806 21.2385C147.343 20.8724 146.854 20.6039 146.317 20.433C145.78 20.2621 145.195 20.1645 144.536 20.1645C143.12 20.1645 141.899 20.6039 140.874 21.4582C139.873 22.3369 139.361 23.3865 139.361 24.6314C139.361 24.8511 139.41 25.1684 139.507 25.5833C139.507 25.6322 139.532 25.6566 139.532 25.681L147.806 21.2385ZM151.004 21.4826L140.215 27.2188C140.679 27.9266 141.289 28.488 142.046 28.8786C142.778 29.2691 143.608 29.4644 144.536 29.4644C145.39 29.4644 146.22 29.3424 146.952 29.0983C147.709 28.8542 148.441 28.488 149.125 27.9754L149.759 29.8794C149.051 30.4164 148.246 30.8313 147.318 31.0998C146.415 31.3927 145.463 31.5148 144.487 31.5148C142.436 31.5148 140.703 30.8557 139.288 29.562C137.872 28.2683 137.164 26.7062 137.164 24.8755C137.164 22.996 137.896 21.4338 139.336 20.1889C140.777 18.944 142.558 18.3094 144.658 18.3094C145.903 18.3094 147.05 18.5779 148.099 19.0905C149.125 19.6275 150.101 20.433 151.004 21.4826ZM132.526 21.2385C132.063 20.8724 131.574 20.6039 131.037 20.433C130.5 20.2621 129.914 20.1645 129.255 20.1645C127.84 20.1645 126.619 20.6039 125.594 21.4582C124.593 22.3369 124.081 23.3865 124.081 24.6314C124.081 24.8511 124.13 25.1684 124.227 25.5833C124.227 25.6322 124.252 25.6566 124.252 25.681L132.526 21.2385ZM135.724 21.4826L124.935 27.2188C125.399 27.9266 126.009 28.488 126.766 28.8786C127.498 29.2691 128.328 29.4644 129.255 29.4644C130.11 29.4644 130.915 29.3424 131.672 29.0983C132.429 28.8542 133.161 28.488 133.844 27.9754L134.479 29.8794C133.771 30.4164 132.966 30.8313 132.038 31.0998C131.135 31.3927 130.183 31.5148 129.207 31.5148C127.156 31.5148 125.423 30.8557 124.007 29.562C122.592 28.2683 121.884 26.7062 121.884 24.8755C121.884 22.996 122.616 21.4338 124.056 20.1889C125.496 18.944 127.278 18.3094 129.377 18.3094C130.622 18.3094 131.77 18.5779 132.819 19.0905C133.844 19.6275 134.821 20.433 135.724 21.4826ZM110.363 30.0746L111.583 28.5124C111.949 28.9274 112.389 29.2203 112.901 29.4644C113.438 29.6841 113.975 29.8061 114.561 29.8061C115.293 29.8061 115.904 29.6353 116.343 29.2691C116.782 28.903 117.026 28.4636 117.026 27.8778C117.026 27.3896 116.831 26.9991 116.465 26.6817C116.099 26.3888 115.367 26.0715 114.268 25.7298C112.95 25.3392 111.998 24.8755 111.461 24.3385C110.9 23.8015 110.631 23.118 110.631 22.2637C110.631 21.1653 111.071 20.2377 111.949 19.5299C112.804 18.7976 113.926 18.4558 115.245 18.4558C116.123 18.4558 116.904 18.6023 117.588 18.8708C118.271 19.1393 118.882 19.5543 119.394 20.1157L118.027 21.4094C117.661 20.9944 117.246 20.6527 116.782 20.433C116.319 20.1889 115.83 20.0913 115.342 20.0913C114.708 20.0913 114.195 20.2621 113.756 20.6039C113.316 20.9456 113.097 21.3605 113.097 21.8487C113.097 22.7519 114.097 23.533 116.123 24.1676C116.27 24.2164 116.367 24.2408 116.416 24.2652C117.539 24.6314 118.369 25.0951 118.857 25.6322C119.345 26.1692 119.589 26.8282 119.589 27.6581C119.589 28.7565 119.126 29.6841 118.174 30.4164C117.246 31.1486 116.05 31.5148 114.586 31.5148C113.731 31.5148 112.95 31.3927 112.218 31.1242C111.461 30.8801 110.851 30.5384 110.363 30.0746ZM97.9384 18.5535V25.9495C97.9384 27.1211 98.1825 27.9998 98.6707 28.6101C99.1589 29.1959 99.8912 29.4888 100.892 29.4888C101.99 29.4888 102.869 29.1471 103.553 28.488C104.212 27.829 104.553 26.9014 104.553 25.7786V18.8952L107.019 18.5779V31.0266L104.553 31.3195V29.562C104.041 30.1723 103.382 30.636 102.576 31.0022C101.771 31.3439 100.941 31.5392 100.038 31.5392C98.4755 31.5392 97.3038 31.1242 96.5471 30.2943C95.7904 29.4644 95.4243 28.1951 95.4243 26.4865V18.8952L97.9384 18.5535ZM83.1221 20.5794C83.6347 19.9204 84.2449 19.4078 84.9528 19.0173C85.685 18.6511 86.4173 18.4558 87.174 18.4558C88.6141 18.4558 89.6881 18.8708 90.3716 19.6763C91.055 20.4818 91.3968 21.7755 91.3968 23.533V31.1486L88.907 31.4415V23.8259C88.907 22.6786 88.7118 21.8487 88.3212 21.3117C87.9307 20.7747 87.3204 20.5306 86.5149 20.5306C85.563 20.5306 84.8063 20.8479 84.2937 21.4826C83.7811 22.1172 83.537 23.0448 83.537 24.2652V31.1486L81.0717 31.4415V23.8259C81.0717 22.6786 80.8764 21.8243 80.5103 21.3117C80.1441 20.7991 79.5095 20.5306 78.6552 20.5306C77.7276 20.5306 76.9953 20.8479 76.4828 21.4826C75.9702 22.1172 75.7261 23.0204 75.7261 24.2164V31.173L73.2607 31.466V18.9684L75.7261 18.6755V20.3354C76.1654 19.7495 76.7268 19.3102 77.4347 18.944C78.1426 18.6023 78.8504 18.4314 79.5827 18.4314C80.3638 18.4314 81.0717 18.6267 81.6575 18.9928C82.2921 19.359 82.7559 19.896 83.1221 20.5794ZM139.581 15.8685H137.408L135.211 19.0905H136.505L139.581 15.8685Z" fill="white"/>
<path d="M72.5773 61.294L74.1883 61.0499C74.2616 61.3672 74.408 61.6113 74.6033 61.7578C74.823 61.9286 75.1159 62.0019 75.482 62.0019C75.897 62.0019 76.2143 61.9286 76.4096 61.7822C76.556 61.6845 76.6293 61.5381 76.6293 61.3428C76.6293 61.2208 76.5804 61.1231 76.5072 61.0499C76.434 60.9767 76.2387 60.9035 75.9702 60.8302C74.6765 60.5373 73.8466 60.2932 73.5049 60.0491C73.0167 59.7318 72.7726 59.268 72.7726 58.6822C72.7726 58.1452 72.9923 57.7058 73.4072 57.3641C73.8222 56.998 74.4568 56.8271 75.3356 56.8271C76.1655 56.8271 76.7757 56.9736 77.1907 57.2421C77.6056 57.5106 77.8741 57.9255 78.0206 58.4381L76.5072 58.7066C76.434 58.4625 76.3119 58.2917 76.1411 58.1696C75.9702 58.0476 75.7017 57.9743 75.36 57.9743C74.945 57.9743 74.6277 58.0232 74.4568 58.1452C74.3348 58.2184 74.2616 58.3405 74.2616 58.4625C74.2616 58.5846 74.3104 58.6822 74.4324 58.7554C74.5789 58.8531 75.0671 59.0239 75.9458 59.2192C76.8001 59.4145 77.4104 59.6586 77.7277 59.9271C78.0694 60.22 78.2403 60.6105 78.2403 61.1231C78.2403 61.6845 77.9962 62.1483 77.5324 62.5633C77.0686 62.9538 76.3852 63.1735 75.4576 63.1735C74.6277 63.1735 73.9687 63.0026 73.4805 62.6609C73.0411 62.3192 72.7238 61.8554 72.5773 61.294Z" fill="white"/>
<path d="M82.5363 56.1192V54.6303H84.1473V56.1192H82.5363ZM82.5363 63.027V56.9492H84.1473V63.027H82.5363Z" fill="white"/>
<path d="M94.2283 63.0271H92.6173V59.9271C92.6173 59.268 92.5929 58.8531 92.5197 58.6578C92.4465 58.4625 92.3488 58.3161 92.178 58.2184C92.0315 58.1208 91.8362 58.0476 91.6165 58.0476C91.348 58.0476 91.0795 58.1208 90.8599 58.2673C90.6402 58.4137 90.4937 58.6334 90.3961 58.8775C90.3229 59.1216 90.274 59.5854 90.274 60.2688V63.0271H88.663V56.9492H90.152V57.8523C90.689 57.1688 91.348 56.8271 92.1535 56.8271C92.5197 56.8271 92.837 56.9003 93.1299 57.0224C93.4228 57.1444 93.6425 57.3153 93.789 57.5106C93.9354 57.7058 94.0331 57.9255 94.1063 58.194C94.1551 58.4381 94.2039 58.8043 94.2039 59.268V63.0271H94.2283Z" fill="white"/>
<path d="M104.041 58.731L102.454 59.0239C102.405 58.7066 102.283 58.4625 102.088 58.3161C101.893 58.1452 101.649 58.072 101.356 58.072C100.965 58.072 100.648 58.2184 100.404 58.4869C100.16 58.7554 100.038 59.2192 100.038 59.8783C100.038 60.6105 100.16 61.0987 100.404 61.416C100.648 61.709 100.965 61.8554 101.38 61.8554C101.673 61.8554 101.942 61.7578 102.137 61.5869C102.332 61.416 102.479 61.1231 102.552 60.6838L104.138 60.9523C103.968 61.6845 103.65 62.2215 103.186 62.5877C102.723 62.9538 102.088 63.1491 101.307 63.1491C100.428 63.1491 99.7204 62.8806 99.1834 62.3192C98.6464 61.7578 98.4023 60.9767 98.4023 60.0003C98.4023 58.9995 98.6708 58.2184 99.2078 57.657C99.7448 57.0956 100.453 56.8271 101.356 56.8271C102.088 56.8271 102.674 56.998 103.113 57.3153C103.553 57.6082 103.846 58.0964 104.041 58.731Z" fill="white"/>
<path d="M111.681 61.0743L113.292 61.3428C113.097 61.9286 112.755 62.368 112.316 62.6853C111.876 63.0026 111.315 63.1491 110.656 63.1491C109.606 63.1491 108.825 62.8073 108.312 62.1239C107.922 61.5625 107.702 60.879 107.702 60.0247C107.702 59.0239 107.971 58.2184 108.483 57.657C109.02 57.0956 109.679 56.8027 110.485 56.8027C111.388 56.8027 112.096 57.0956 112.633 57.7058C113.145 58.2916 113.414 59.2192 113.39 60.4396H109.338C109.338 60.9278 109.484 61.294 109.728 61.5625C109.972 61.831 110.29 61.953 110.656 61.953C110.9 61.953 111.12 61.8798 111.29 61.7577C111.461 61.6113 111.583 61.3916 111.681 61.0743ZM111.779 59.4633C111.779 58.9995 111.657 58.6334 111.412 58.4137C111.193 58.1696 110.9 58.0475 110.582 58.0475C110.241 58.0475 109.948 58.1696 109.704 58.4381C109.46 58.7066 109.362 59.0483 109.362 59.4877H111.779V59.4633Z" fill="white"/>
<path d="M127.498 63.0271H125.887V56.9736C125.301 57.5106 124.618 57.9255 123.812 58.194V56.7295C124.227 56.583 124.691 56.3389 125.179 55.9484C125.667 55.5579 126.009 55.1185 126.18 54.6059H127.474V63.0271H127.498Z" fill="white"/>
<path d="M134.162 58.487C133.747 58.3161 133.454 58.072 133.259 57.7547C133.063 57.4374 132.966 57.12 132.966 56.7539C132.966 56.1193 133.185 55.6067 133.625 55.1917C134.064 54.7768 134.674 54.5815 135.48 54.5815C136.285 54.5815 136.896 54.7768 137.335 55.1917C137.774 55.6067 137.994 56.1193 137.994 56.7539C137.994 57.1444 137.896 57.4862 137.701 57.8035C137.506 58.0964 137.213 58.3405 136.847 58.487C137.311 58.6822 137.677 58.9507 137.896 59.3169C138.14 59.683 138.263 60.098 138.263 60.5617C138.263 61.3428 138.018 61.9775 137.53 62.4412C137.042 62.9294 136.383 63.1735 135.553 63.1735C134.796 63.1735 134.162 62.9783 133.649 62.5633C133.039 62.0995 132.746 61.4405 132.746 60.6106C132.746 60.1468 132.868 59.7318 133.088 59.3657C133.332 58.9995 133.674 58.7066 134.162 58.487ZM134.357 60.4641C134.357 60.9035 134.479 61.2452 134.699 61.4893C134.918 61.7334 135.211 61.8554 135.553 61.8554C135.895 61.8554 136.163 61.7334 136.383 61.4893C136.603 61.2452 136.7 60.9035 136.7 60.4641C136.7 60.0736 136.578 59.7562 136.359 59.5121C136.139 59.2681 135.846 59.146 135.529 59.146C135.138 59.146 134.845 59.2925 134.65 59.561C134.43 59.8539 134.357 60.1468 134.357 60.4641ZM134.503 56.8759C134.503 57.1933 134.601 57.4374 134.772 57.6326C134.943 57.8035 135.187 57.9011 135.504 57.9011C135.797 57.9011 136.041 57.8035 136.237 57.6326C136.432 57.4618 136.505 57.1933 136.505 56.8759C136.505 56.583 136.407 56.3389 136.237 56.1437C136.066 55.9728 135.822 55.8752 135.529 55.8752C135.211 55.8752 134.967 55.9728 134.796 56.1437C134.626 56.3145 134.503 56.583 134.503 56.8759Z" fill="white"/>
<path d="M145.341 63.0271V61.3428H141.899V59.9271L145.536 54.6059H146.879V59.9271H147.929V61.3428H146.879V63.0271H145.341ZM145.341 59.9271V57.0712L143.413 59.9271H145.341Z" fill="white"/>
<path d="M157.033 61.5137V63.0026H151.395C151.443 62.4412 151.639 61.9042 151.932 61.3916C152.225 60.879 152.835 60.22 153.738 59.3901C154.47 58.7066 154.91 58.2672 155.08 58.0231C155.3 57.6814 155.422 57.3641 155.422 57.0468C155.422 56.6806 155.325 56.4121 155.129 56.2169C154.934 56.0216 154.665 55.924 154.324 55.924C153.982 55.924 153.714 56.0216 153.518 56.2169C153.323 56.4121 153.201 56.7539 153.177 57.2176L151.566 57.0468C151.663 56.168 151.956 55.5334 152.469 55.1429C152.981 54.7523 153.591 54.557 154.348 54.557C155.178 54.557 155.837 54.7767 156.301 55.2161C156.765 55.6555 157.009 56.2169 157.009 56.8759C157.009 57.242 156.936 57.6082 156.813 57.9499C156.667 58.2916 156.472 58.6578 156.179 59.0239C155.984 59.268 155.642 59.6342 155.129 60.0979C154.617 60.5617 154.299 60.879 154.177 61.0255C154.031 61.1719 153.933 61.3184 153.86 61.4648H157.033V61.5137Z" fill="white"/>
</svg>
